<svg xmlns="http://www.w3.org/2000/svg" xmlns:xlink="http://www.w3.org/1999/xlink" width="52" height="34" version="1.1" style=""><rect id="backgroundrect" width="100%" height="100%" x="0" y="0" fill="none" stroke="none" style="" class="selected"/>

<g class="currentLayer" style=""><title>Layer 1</title><g id="surface1" class="">
<path style=" stroke:none;fill-rule:nonzero;fill:rgb(0%,0%,0%);fill-opacity:1;" d="M48.053894117474556,4.764030605554581 C48.053894117474556,2.314812809228897 46.069519117474556,0.3265306055545807 43.620300367474556,0.3265306055545807 L4.5968595296144485,0.3265306055545807 C2.147640183568001,0.3265306055545807 0.16326530277729034,2.314812809228897 0.16326530277729034,4.764030605554581 L0.16326530277729034,8.64684310555458 L48.053894117474556,8.64684310555458 zM48.053894117474556,4.764030605554581 " id="svg_1"/>
<path style=" stroke:none;fill-rule:nonzero;fill:rgb(0%,0%,0%);fill-opacity:1;" d="M45.436706617474556,21.48278060555458 L42.518737867474556,21.48278060555458 L42.514831617474556,18.56481185555458 C42.514831617474556,18.41246810555458 42.393737867474556,18.28746810555458 42.241394117474556,18.28746810555458 L40.038269117474556,18.28746810555458 C39.964050367474556,18.28746810555458 39.893737867474556,18.31871810555458 39.842956617474556,18.36949935555458 C39.792175367474556,18.42028060555458 39.760925367474556,18.49059310555458 39.760925367474556,18.56481185555458 L39.760925367474556,21.48278060555458 L36.842956617474556,21.48278060555458 C36.690612867474556,21.48278060555458 36.569519117474556,21.60387435555458 36.569519117474556,21.75621810555458 L36.569519117474556,23.95934310555458 C36.569519117474556,24.03356185555458 36.596862867474556,24.10387435555458 36.651550367474556,24.15465560555458 C36.702331617474556,24.20543685555458 36.772644117474556,24.23668685555458 36.842956617474556,24.23668685555458 L39.764831617474556,24.23668685555458 L39.764831617474556,27.15465560555458 C39.764831617474556,27.22887435555458 39.792175367474556,27.29918685555458 39.846862867474556,27.34996810555458 C39.897644117474556,27.40074935555458 39.967956617474556,27.43199935555458 40.038269117474556,27.43199935555458 L42.245300367474556,27.43199935555458 C42.393737867474556,27.43199935555458 42.518737867474556,27.30699935555458 42.518737867474556,27.15465560555458 L42.518737867474556,24.23668685555458 L45.436706617474556,24.23668685555458 C45.510925367474556,24.23668685555458 45.581237867474556,24.20934310555458 45.632019117474556,24.15856185555458 C45.682800367474556,24.10778060555458 45.710144117474556,24.03746810555458 45.710144117474556,23.96324935555458 L45.710144117474556,21.76012435555458 C45.710144117474556,21.60778060555458 45.589050367474556,21.48278060555458 45.436706617474556,21.48278060555458 zM45.436706617474556,21.48278060555458 " id="svg_2"/>
<path style=" stroke:none;fill-rule:nonzero;fill:rgb(0%,0%,0%);fill-opacity:1;" d="M41.147644117474556,11.86949935555458 C39.139831617474556,11.86949935555458 37.257019117474556,12.41246810555458 35.635925367474556,13.35387435555458 L0.16326530277729034,13.35387435555458 L0.16326530277729034,26.80699935555458 C0.16326530277729034,29.25621810555458 2.147640183568001,31.24449935555458 4.5968595296144485,31.24449935555458 L34.038269117474556,31.24449935555458 C35.956237867474556,32.87340560555458 38.440612867474556,33.85778060555458 41.147644117474556,33.85778060555458 C47.210144117474556,33.85778060555458 52.143737867474556,28.92809310555458 52.143737867474556,22.86559310555458 C52.143737867474556,16.80309310555458 47.210144117474556,11.86949935555458 41.147644117474556,11.86949935555458 zM16.53826530277729,25.16637435555458 C16.53826530277729,25.47887435555458 16.28435905277729,25.73278060555458 15.97185905277729,25.73278060555458 L7.198421075940132,25.73278060555458 C6.88201530277729,25.73278060555458 6.6281095296144485,25.47887435555458 6.6281095296144485,25.16637435555458 L6.6281095296144485,23.43590560555458 C6.6281095296144485,23.11949935555458 6.88201530277729,22.86559310555458 7.198421075940132,22.86559310555458 L15.97185905277729,22.86559310555458 C16.28435905277729,22.86559310555458 16.53826530277729,23.11949935555458 16.53826530277729,23.43590560555458 zM41.147644117474556,29.83434310555458 C37.299987867474556,29.83434310555458 34.178894117474556,26.71324935555458 34.178894117474556,22.86559310555458 C34.178894117474556,19.01793685555458 37.299987867474556,15.89684310555458 41.147644117474556,15.89684310555458 C44.999206617474556,15.89684310555458 48.116394117474556,19.01793685555458 48.116394117474556,22.86559310555458 C48.116394117474556,26.71324935555458 44.999206617474556,29.83434310555458 41.147644117474556,29.83434310555458 zM41.147644117474556,29.83434310555458 " id="svg_3"/>
</g></g></svg>