<?xml version="1.0" encoding="UTF-8"?>
<svg xmlns="http://www.w3.org/2000/svg" xmlns:xlink="http://www.w3.org/1999/xlink" width="51pt" height="33pt" viewBox="0 0 51 33" version="1.1">
<g id="surface1">
<path style=" stroke:none;fill-rule:nonzero;fill:rgb(22.352941%,22.352941%,22.352941%);fill-opacity:1;" d="M 2.617188 0 L 48.382812 0 C 49.828125 0 51 1.183594 51 2.640625 L 51 30.359375 C 51 31.816406 49.828125 33 48.382812 33 L 2.617188 33 C 1.171875 33 0 31.816406 0 30.359375 L 0 2.640625 C 0 1.183594 1.171875 0 2.617188 0 Z M 2.617188 0 "/>
<path style=" stroke:none;fill-rule:nonzero;fill:rgb(100%,100%,100%);fill-opacity:0.74902;" d="M 4.515625 10.136719 L 9.070312 10.136719 C 9.804688 10.136719 10.398438 10.738281 10.398438 11.476562 L 10.398438 15.375 C 10.398438 16.113281 9.804688 16.714844 9.070312 16.714844 L 4.515625 16.714844 C 3.78125 16.714844 3.183594 16.113281 3.183594 15.375 L 3.183594 11.476562 C 3.183594 10.738281 3.78125 10.136719 4.515625 10.136719 Z M 4.515625 10.136719 "/>
<path style=" stroke:none;fill-rule:nonzero;fill:rgb(100%,100%,100%);fill-opacity:1;" d="M 5.105469 20.484375 L 5.105469 20.234375 L 4.773438 20.234375 L 4.773438 19.488281 L 4.496094 19.488281 L 4.472656 20.234375 L 3.722656 20.234375 L 4.414062 18.578125 L 4.15625 18.464844 L 3.390625 20.257812 L 3.390625 20.484375 L 4.46875 20.484375 L 4.46875 21.121094 L 4.773438 21.121094 L 4.773438 20.484375 Z M 6.386719 18.464844 C 6.125 18.464844 5.871094 18.554688 5.652344 18.769531 L 5.824219 18.960938 C 5.996094 18.800781 6.152344 18.71875 6.371094 18.71875 C 6.648438 18.71875 6.863281 18.875 6.863281 19.164062 C 6.863281 19.480469 6.621094 19.621094 6.371094 19.621094 L 6.21875 19.621094 L 6.179688 19.875 L 6.398438 19.875 C 6.703125 19.875 6.9375 19.996094 6.9375 20.371094 C 6.9375 20.695312 6.722656 20.90625 6.355469 20.90625 C 6.148438 20.90625 5.929688 20.820312 5.78125 20.644531 L 5.570312 20.820312 C 5.765625 21.0625 6.074219 21.164062 6.363281 21.164062 C 6.898438 21.164062 7.261719 20.820312 7.261719 20.371094 C 7.261719 19.964844 6.976562 19.753906 6.671875 19.730469 C 6.949219 19.675781 7.179688 19.4375 7.179688 19.121094 C 7.179688 18.765625 6.871094 18.464844 6.386719 18.464844 Z M 8.640625 18.464844 C 8.292969 18.464844 8.058594 18.589844 7.851562 18.839844 L 8.070312 19.007812 C 8.234375 18.816406 8.375 18.730469 8.628906 18.730469 C 8.917969 18.730469 9.09375 18.914062 9.09375 19.207031 C 9.09375 19.632812 8.882812 19.917969 7.90625 20.863281 L 7.90625 21.121094 L 9.441406 21.121094 L 9.480469 20.851562 L 8.261719 20.851562 C 9.117188 20.066406 9.417969 19.675781 9.417969 19.199219 C 9.417969 18.78125 9.128906 18.464844 8.640625 18.464844 Z M 11.828125 20.863281 L 11.285156 20.863281 L 11.285156 18.511719 L 11.011719 18.511719 L 10.246094 18.988281 L 10.378906 19.214844 L 10.976562 18.851562 L 10.976562 20.863281 L 10.335938 20.863281 L 10.335938 21.121094 L 11.828125 21.121094 Z M 16.378906 20.484375 L 16.378906 20.234375 L 16.042969 20.234375 L 16.042969 19.488281 L 15.769531 19.488281 L 15.742188 20.234375 L 14.996094 20.234375 L 15.6875 18.578125 L 15.425781 18.464844 L 14.664062 20.257812 L 14.664062 20.484375 L 15.738281 20.484375 L 15.738281 21.121094 L 16.042969 21.121094 L 16.042969 20.484375 Z M 17.660156 18.464844 C 17.394531 18.464844 17.144531 18.554688 16.925781 18.769531 L 17.09375 18.960938 C 17.269531 18.800781 17.421875 18.71875 17.644531 18.71875 C 17.917969 18.71875 18.136719 18.875 18.136719 19.164062 C 18.136719 19.480469 17.890625 19.621094 17.644531 19.621094 L 17.488281 19.621094 L 17.453125 19.875 L 17.671875 19.875 C 17.972656 19.875 18.207031 19.996094 18.207031 20.371094 C 18.207031 20.695312 17.992188 20.90625 17.628906 20.90625 C 17.417969 20.90625 17.199219 20.820312 17.054688 20.644531 L 16.84375 20.820312 C 17.039062 21.0625 17.347656 21.164062 17.636719 21.164062 C 18.171875 21.164062 18.535156 20.820312 18.535156 20.371094 C 18.535156 19.964844 18.25 19.753906 17.945312 19.730469 C 18.21875 19.675781 18.453125 19.4375 18.453125 19.121094 C 18.453125 18.765625 18.144531 18.464844 17.660156 18.464844 Z M 19.914062 18.464844 C 19.5625 18.464844 19.332031 18.589844 19.125 18.839844 L 19.339844 19.007812 C 19.507812 18.816406 19.644531 18.730469 19.902344 18.730469 C 20.191406 18.730469 20.363281 18.914062 20.363281 19.207031 C 20.363281 19.632812 20.152344 19.917969 19.175781 20.863281 L 19.175781 21.121094 L 20.714844 21.121094 L 20.75 20.851562 L 19.535156 20.851562 C 20.386719 20.066406 20.691406 19.675781 20.691406 19.199219 C 20.691406 18.78125 20.402344 18.464844 19.914062 18.464844 Z M 23.101562 20.863281 L 22.558594 20.863281 L 22.558594 18.511719 L 22.285156 18.511719 L 21.515625 18.988281 L 21.652344 19.214844 L 22.246094 18.851562 L 22.246094 20.863281 L 21.605469 20.863281 L 21.605469 21.121094 L 23.101562 21.121094 Z M 27.648438 20.484375 L 27.648438 20.234375 L 27.316406 20.234375 L 27.316406 19.488281 L 27.039062 19.488281 L 27.015625 20.234375 L 26.265625 20.234375 L 26.957031 18.578125 L 26.699219 18.464844 L 25.933594 20.257812 L 25.933594 20.484375 L 27.011719 20.484375 L 27.011719 21.121094 L 27.316406 21.121094 L 27.316406 20.484375 Z M 28.929688 18.464844 C 28.667969 18.464844 28.414062 18.554688 28.195312 18.769531 L 28.367188 18.960938 C 28.539062 18.800781 28.695312 18.71875 28.914062 18.71875 C 29.191406 18.71875 29.40625 18.875 29.40625 19.164062 C 29.40625 19.480469 29.164062 19.621094 28.914062 19.621094 L 28.761719 19.621094 L 28.722656 19.875 L 28.941406 19.875 C 29.246094 19.875 29.480469 19.996094 29.480469 20.371094 C 29.480469 20.695312 29.265625 20.90625 28.898438 20.90625 C 28.691406 20.90625 28.472656 20.820312 28.324219 20.644531 L 28.113281 20.820312 C 28.308594 21.0625 28.617188 21.164062 28.90625 21.164062 C 29.441406 21.164062 29.804688 20.820312 29.804688 20.371094 C 29.804688 19.964844 29.519531 19.753906 29.214844 19.730469 C 29.492188 19.675781 29.722656 19.4375 29.722656 19.121094 C 29.722656 18.765625 29.414062 18.464844 28.929688 18.464844 Z M 31.183594 18.464844 C 30.835938 18.464844 30.601562 18.589844 30.394531 18.839844 L 30.613281 19.007812 C 30.777344 18.816406 30.917969 18.730469 31.171875 18.730469 C 31.460938 18.730469 31.636719 18.914062 31.636719 19.207031 C 31.636719 19.632812 31.425781 19.917969 30.449219 20.863281 L 30.449219 21.121094 L 31.984375 21.121094 L 32.023438 20.851562 L 30.804688 20.851562 C 31.660156 20.066406 31.960938 19.675781 31.960938 19.199219 C 31.960938 18.78125 31.671875 18.464844 31.183594 18.464844 Z M 34.371094 20.863281 L 33.828125 20.863281 L 33.828125 18.511719 L 33.554688 18.511719 L 32.789062 18.988281 L 32.921875 19.214844 L 33.519531 18.851562 L 33.519531 20.863281 L 32.878906 20.863281 L 32.878906 21.121094 L 34.371094 21.121094 Z M 38.921875 20.484375 L 38.921875 20.234375 L 38.585938 20.234375 L 38.585938 19.488281 L 38.3125 19.488281 L 38.285156 20.234375 L 37.539062 20.234375 L 38.230469 18.578125 L 37.96875 18.464844 L 37.207031 20.257812 L 37.207031 20.484375 L 38.28125 20.484375 L 38.28125 21.121094 L 38.585938 21.121094 L 38.585938 20.484375 Z M 40.203125 18.464844 C 39.9375 18.464844 39.6875 18.554688 39.46875 18.769531 L 39.636719 18.960938 C 39.8125 18.800781 39.964844 18.71875 40.1875 18.71875 C 40.460938 18.71875 40.679688 18.875 40.679688 19.164062 C 40.679688 19.480469 40.433594 19.621094 40.1875 19.621094 L 40.03125 19.621094 L 39.996094 19.875 L 40.214844 19.875 C 40.519531 19.875 40.75 19.996094 40.75 20.371094 C 40.75 20.695312 40.535156 20.90625 40.171875 20.90625 C 39.960938 20.90625 39.742188 20.820312 39.597656 20.644531 L 39.386719 20.820312 C 39.582031 21.0625 39.890625 21.164062 40.179688 21.164062 C 40.714844 21.164062 41.078125 20.820312 41.078125 20.371094 C 41.078125 19.964844 40.792969 19.753906 40.488281 19.730469 C 40.761719 19.675781 40.996094 19.4375 40.996094 19.121094 C 40.996094 18.765625 40.6875 18.464844 40.203125 18.464844 Z M 42.457031 18.464844 C 42.105469 18.464844 41.875 18.589844 41.667969 18.839844 L 41.882812 19.007812 C 42.050781 18.816406 42.1875 18.730469 42.445312 18.730469 C 42.734375 18.730469 42.90625 18.914062 42.90625 19.207031 C 42.90625 19.632812 42.695312 19.917969 41.71875 20.863281 L 41.71875 21.121094 L 43.257812 21.121094 L 43.292969 20.851562 L 42.078125 20.851562 C 42.929688 20.066406 43.234375 19.675781 43.234375 19.199219 C 43.234375 18.78125 42.945312 18.464844 42.457031 18.464844 Z M 45.644531 20.863281 L 45.101562 20.863281 L 45.101562 18.511719 L 44.828125 18.511719 L 44.058594 18.988281 L 44.195312 19.214844 L 44.789062 18.851562 L 44.789062 20.863281 L 44.148438 20.863281 L 44.148438 21.121094 L 45.644531 21.121094 Z M 45.644531 20.863281 "/>
<path style=" stroke:none;fill-rule:nonzero;fill:rgb(100%,100%,100%);fill-opacity:0.760784;" d="M 3.636719 27.417969 L 4.058594 27.417969 L 4.058594 25.949219 L 3.597656 26.042969 L 3.597656 25.804688 L 4.054688 25.710938 L 4.3125 25.710938 L 4.3125 27.417969 L 4.734375 27.417969 L 4.734375 27.636719 L 3.636719 27.636719 Z M 5.300781 27.417969 L 5.722656 27.417969 L 5.722656 25.949219 L 5.265625 26.042969 L 5.265625 25.804688 L 5.71875 25.710938 L 5.976562 25.710938 L 5.976562 27.417969 L 6.398438 27.417969 L 6.398438 27.636719 L 5.300781 27.636719 Z M 7.976562 27.417969 L 8.875 27.417969 L 8.875 27.636719 L 7.667969 27.636719 L 7.667969 27.417969 C 7.796875 27.28125 7.933594 27.144531 8.066406 27.007812 C 8.234375 26.832031 8.339844 26.722656 8.386719 26.671875 C 8.46875 26.578125 8.523438 26.5 8.558594 26.433594 C 8.589844 26.371094 8.605469 26.304688 8.605469 26.242188 C 8.605469 26.140625 8.570312 26.058594 8.5 25.992188 C 8.429688 25.929688 8.335938 25.898438 8.222656 25.898438 C 8.140625 25.898438 8.054688 25.910156 7.964844 25.9375 C 7.875 25.96875 7.78125 26.011719 7.679688 26.066406 L 7.679688 25.804688 C 7.78125 25.761719 7.878906 25.730469 7.96875 25.710938 C 8.058594 25.6875 8.144531 25.675781 8.21875 25.675781 C 8.414062 25.675781 8.574219 25.726562 8.691406 25.828125 C 8.808594 25.925781 8.867188 26.058594 8.867188 26.226562 C 8.867188 26.304688 8.851562 26.382812 8.820312 26.453125 C 8.792969 26.523438 8.738281 26.605469 8.664062 26.703125 C 8.640625 26.726562 8.574219 26.800781 8.460938 26.917969 C 8.296875 27.085938 8.136719 27.25 7.976562 27.417969 Z M 10.199219 26.597656 C 10.324219 26.625 10.421875 26.679688 10.488281 26.765625 C 10.558594 26.851562 10.59375 26.953125 10.59375 27.078125 C 10.59375 27.265625 10.53125 27.414062 10.398438 27.519531 C 10.269531 27.621094 10.085938 27.675781 9.847656 27.675781 C 9.769531 27.675781 9.6875 27.667969 9.601562 27.648438 C 9.511719 27.632812 9.425781 27.609375 9.339844 27.578125 L 9.339844 27.328125 C 9.414062 27.371094 9.492188 27.402344 9.574219 27.421875 C 9.660156 27.445312 9.75 27.457031 9.839844 27.457031 C 10.003906 27.457031 10.125 27.421875 10.210938 27.359375 C 10.296875 27.292969 10.335938 27.199219 10.335938 27.078125 C 10.335938 26.964844 10.296875 26.875 10.21875 26.8125 C 10.140625 26.746094 10.03125 26.714844 9.890625 26.714844 L 9.667969 26.714844 L 9.667969 26.5 L 9.902344 26.5 C 10.027344 26.5 10.125 26.476562 10.191406 26.425781 C 10.257812 26.375 10.292969 26.300781 10.292969 26.203125 C 10.292969 26.105469 10.257812 26.027344 10.1875 25.976562 C 10.121094 25.921875 10.019531 25.898438 9.890625 25.898438 C 9.820312 25.898438 9.746094 25.90625 9.664062 25.917969 C 9.582031 25.933594 9.492188 25.960938 9.398438 25.992188 L 9.398438 25.761719 C 9.488281 25.734375 9.578125 25.714844 9.671875 25.699219 C 9.75 25.683594 9.832031 25.679688 9.914062 25.675781 C 10.109375 25.675781 10.265625 25.722656 10.378906 25.8125 C 10.492188 25.902344 10.550781 26.023438 10.550781 26.175781 C 10.550781 26.28125 10.519531 26.375 10.460938 26.445312 C 10.398438 26.519531 10.3125 26.570312 10.199219 26.597656 Z M 11.921875 25.710938 L 12.933594 25.710938 L 12.933594 25.929688 L 12.15625 25.929688 L 12.15625 26.402344 C 12.191406 26.390625 12.230469 26.382812 12.269531 26.375 C 12.304688 26.367188 12.34375 26.363281 12.382812 26.363281 C 12.59375 26.363281 12.761719 26.421875 12.886719 26.542969 C 13.011719 26.660156 13.074219 26.820312 13.074219 27.019531 C 13.074219 27.226562 13.007812 27.386719 12.882812 27.503906 C 12.753906 27.617188 12.574219 27.675781 12.339844 27.675781 C 12.261719 27.675781 12.179688 27.667969 12.097656 27.652344 C 12.007812 27.640625 11.921875 27.617188 11.839844 27.59375 L 11.839844 27.332031 C 11.914062 27.371094 11.996094 27.402344 12.078125 27.425781 C 12.160156 27.445312 12.246094 27.457031 12.335938 27.457031 C 12.484375 27.457031 12.601562 27.417969 12.6875 27.335938 C 12.773438 27.257812 12.816406 27.152344 12.816406 27.019531 C 12.816406 26.886719 12.773438 26.777344 12.6875 26.699219 C 12.601562 26.621094 12.484375 26.582031 12.335938 26.582031 C 12.265625 26.582031 12.199219 26.589844 12.128906 26.605469 C 12.058594 26.625 11.988281 26.648438 11.921875 26.679688 Z M 14.132812 26.722656 C 14.011719 26.722656 13.914062 26.757812 13.84375 26.820312 C 13.773438 26.886719 13.738281 26.980469 13.738281 27.09375 C 13.738281 27.210938 13.773438 27.300781 13.84375 27.367188 C 13.914062 27.433594 14.011719 27.46875 14.132812 27.46875 C 14.257812 27.46875 14.355469 27.433594 14.425781 27.367188 C 14.496094 27.300781 14.53125 27.210938 14.53125 27.09375 C 14.53125 26.980469 14.496094 26.886719 14.425781 26.820312 C 14.355469 26.757812 14.257812 26.722656 14.132812 26.722656 Z M 13.875 26.613281 C 13.765625 26.585938 13.679688 26.53125 13.617188 26.457031 C 13.554688 26.378906 13.523438 26.285156 13.523438 26.175781 C 13.523438 26.023438 13.578125 25.902344 13.6875 25.8125 C 13.796875 25.722656 13.945312 25.675781 14.132812 25.675781 C 14.324219 25.675781 14.472656 25.722656 14.582031 25.8125 C 14.691406 25.902344 14.742188 26.023438 14.742188 26.175781 C 14.742188 26.285156 14.710938 26.378906 14.648438 26.457031 C 14.589844 26.53125 14.503906 26.585938 14.394531 26.613281 C 14.519531 26.640625 14.613281 26.699219 14.683594 26.785156 C 14.753906 26.867188 14.789062 26.972656 14.789062 27.09375 C 14.789062 27.28125 14.730469 27.425781 14.617188 27.523438 C 14.507812 27.625 14.34375 27.675781 14.132812 27.675781 C 13.925781 27.675781 13.761719 27.625 13.648438 27.523438 C 13.535156 27.425781 13.480469 27.28125 13.480469 27.09375 C 13.480469 26.972656 13.515625 26.867188 13.585938 26.785156 C 13.65625 26.699219 13.753906 26.640625 13.875 26.613281 Z M 13.78125 26.199219 C 13.78125 26.300781 13.8125 26.378906 13.875 26.433594 C 13.9375 26.488281 14.023438 26.519531 14.132812 26.519531 C 14.246094 26.519531 14.332031 26.488281 14.394531 26.433594 C 14.457031 26.378906 14.488281 26.300781 14.488281 26.199219 C 14.488281 26.101562 14.457031 26.023438 14.394531 25.96875 C 14.332031 25.910156 14.246094 25.882812 14.132812 25.882812 C 14.023438 25.882812 13.9375 25.910156 13.875 25.96875 C 13.8125 26.023438 13.78125 26.101562 13.78125 26.199219 Z M 13.78125 26.199219 "/>
<path style=" stroke:none;fill-rule:nonzero;fill:rgb(100%,100%,100%);fill-opacity:0.784314;" d="M 20.191406 27.355469 L 20.613281 27.355469 L 20.613281 25.886719 L 20.15625 25.976562 L 20.15625 25.742188 L 20.613281 25.648438 L 20.871094 25.648438 L 20.871094 27.355469 L 21.292969 27.355469 L 21.292969 27.574219 L 20.191406 27.574219 Z M 22.59375 26.535156 C 22.71875 26.5625 22.816406 26.617188 22.882812 26.703125 C 22.953125 26.785156 22.988281 26.890625 22.988281 27.011719 C 22.988281 27.203125 22.925781 27.351562 22.792969 27.453125 C 22.664062 27.558594 22.480469 27.609375 22.242188 27.609375 C 22.164062 27.609375 22.082031 27.601562 21.996094 27.585938 C 21.90625 27.570312 21.820312 27.546875 21.734375 27.515625 L 21.734375 27.261719 C 21.808594 27.304688 21.886719 27.339844 21.96875 27.359375 C 22.054688 27.378906 22.144531 27.390625 22.234375 27.390625 C 22.398438 27.390625 22.519531 27.359375 22.605469 27.292969 C 22.6875 27.230469 22.730469 27.136719 22.730469 27.011719 C 22.730469 26.898438 22.691406 26.8125 22.613281 26.746094 C 22.535156 26.683594 22.425781 26.652344 22.285156 26.652344 L 22.0625 26.652344 L 22.0625 26.4375 L 22.296875 26.4375 C 22.421875 26.4375 22.519531 26.410156 22.585938 26.359375 C 22.652344 26.308594 22.6875 26.234375 22.6875 26.140625 C 22.6875 26.039062 22.652344 25.964844 22.582031 25.914062 C 22.511719 25.859375 22.414062 25.832031 22.285156 25.832031 C 22.214844 25.832031 22.136719 25.839844 22.058594 25.855469 C 21.976562 25.871094 21.886719 25.894531 21.789062 25.929688 L 21.789062 25.695312 C 21.882812 25.671875 21.972656 25.648438 22.066406 25.632812 C 22.144531 25.621094 22.226562 25.613281 22.308594 25.613281 C 22.503906 25.613281 22.660156 25.660156 22.773438 25.75 C 22.886719 25.839844 22.945312 25.960938 22.945312 26.113281 C 22.945312 26.21875 22.914062 26.308594 22.851562 26.382812 C 22.792969 26.457031 22.707031 26.507812 22.59375 26.535156 Z M 23.703125 27.355469 L 24.601562 27.355469 L 24.601562 27.574219 L 23.390625 27.574219 L 23.390625 27.355469 C 23.523438 27.214844 23.65625 27.078125 23.789062 26.941406 C 23.960938 26.769531 24.066406 26.660156 24.109375 26.609375 C 24.191406 26.515625 24.25 26.4375 24.28125 26.371094 C 24.316406 26.304688 24.332031 26.242188 24.332031 26.179688 C 24.332031 26.078125 24.296875 25.992188 24.226562 25.929688 C 24.152344 25.863281 24.0625 25.832031 23.949219 25.832031 C 23.867188 25.832031 23.78125 25.847656 23.691406 25.875 C 23.601562 25.902344 23.503906 25.945312 23.402344 26.003906 L 23.402344 25.742188 C 23.507812 25.699219 23.605469 25.667969 23.695312 25.644531 C 23.785156 25.625 23.867188 25.613281 23.941406 25.613281 C 24.140625 25.613281 24.296875 25.664062 24.414062 25.761719 C 24.53125 25.863281 24.589844 25.996094 24.589844 26.164062 C 24.589844 26.242188 24.578125 26.316406 24.546875 26.386719 C 24.519531 26.457031 24.464844 26.542969 24.386719 26.636719 C 24.367188 26.664062 24.296875 26.734375 24.183594 26.855469 C 24.023438 27.023438 23.863281 27.1875 23.703125 27.355469 Z M 25.1875 27.355469 L 25.609375 27.355469 L 25.609375 25.886719 L 25.152344 25.976562 L 25.152344 25.742188 L 25.609375 25.648438 L 25.867188 25.648438 L 25.867188 27.355469 L 26.289062 27.355469 L 26.289062 27.574219 L 25.1875 27.574219 Z M 28.421875 26.535156 C 28.546875 26.5625 28.644531 26.617188 28.710938 26.703125 C 28.78125 26.785156 28.816406 26.890625 28.816406 27.011719 C 28.816406 27.203125 28.753906 27.351562 28.621094 27.453125 C 28.492188 27.558594 28.308594 27.609375 28.070312 27.609375 C 27.992188 27.609375 27.910156 27.601562 27.824219 27.585938 C 27.734375 27.570312 27.648438 27.546875 27.5625 27.515625 L 27.5625 27.261719 C 27.636719 27.304688 27.714844 27.339844 27.796875 27.359375 C 27.882812 27.378906 27.972656 27.390625 28.0625 27.390625 C 28.226562 27.390625 28.347656 27.359375 28.433594 27.292969 C 28.519531 27.230469 28.558594 27.136719 28.558594 27.011719 C 28.558594 26.898438 28.519531 26.8125 28.441406 26.746094 C 28.363281 26.683594 28.253906 26.652344 28.113281 26.652344 L 27.890625 26.652344 L 27.890625 26.4375 L 28.125 26.4375 C 28.25 26.4375 28.347656 26.410156 28.414062 26.359375 C 28.480469 26.308594 28.515625 26.234375 28.515625 26.140625 C 28.515625 26.039062 28.480469 25.964844 28.410156 25.914062 C 28.34375 25.859375 28.242188 25.832031 28.113281 25.832031 C 28.042969 25.832031 27.96875 25.839844 27.886719 25.855469 C 27.804688 25.871094 27.714844 25.894531 27.617188 25.929688 L 27.617188 25.695312 C 27.710938 25.671875 27.800781 25.648438 27.894531 25.632812 C 27.972656 25.621094 28.054688 25.613281 28.136719 25.613281 C 28.332031 25.613281 28.488281 25.660156 28.601562 25.75 C 28.714844 25.839844 28.773438 25.960938 28.773438 26.113281 C 28.773438 26.21875 28.742188 26.308594 28.679688 26.382812 C 28.621094 26.457031 28.535156 26.507812 28.421875 26.535156 Z M 30.015625 25.875 L 29.363281 26.902344 L 30.015625 26.902344 Z M 29.949219 25.648438 L 30.273438 25.648438 L 30.273438 26.902344 L 30.542969 26.902344 L 30.542969 27.121094 L 30.273438 27.121094 L 30.273438 27.574219 L 30.015625 27.574219 L 30.015625 27.121094 L 29.15625 27.121094 L 29.15625 26.867188 Z M 30.976562 25.648438 L 31.988281 25.648438 L 31.988281 25.867188 L 31.210938 25.867188 L 31.210938 26.339844 C 31.25 26.328125 31.285156 26.316406 31.324219 26.3125 C 31.359375 26.304688 31.398438 26.300781 31.4375 26.300781 C 31.648438 26.300781 31.816406 26.359375 31.941406 26.476562 C 32.066406 26.59375 32.128906 26.753906 32.128906 26.957031 C 32.128906 27.164062 32.066406 27.324219 31.9375 27.4375 C 31.808594 27.554688 31.628906 27.609375 31.398438 27.609375 C 31.316406 27.609375 31.234375 27.605469 31.152344 27.589844 C 31.066406 27.574219 30.980469 27.554688 30.894531 27.527344 L 30.894531 27.265625 C 30.96875 27.308594 31.050781 27.339844 31.132812 27.359375 C 31.214844 27.382812 31.300781 27.390625 31.390625 27.390625 C 31.539062 27.390625 31.65625 27.351562 31.742188 27.273438 C 31.828125 27.195312 31.871094 27.089844 31.871094 26.957031 C 31.871094 26.820312 31.828125 26.714844 31.742188 26.636719 C 31.65625 26.558594 31.539062 26.519531 31.390625 26.519531 C 31.324219 26.519531 31.253906 26.527344 31.183594 26.542969 C 31.113281 26.558594 31.042969 26.585938 30.976562 26.617188 Z M 32.640625 25.648438 L 33.652344 25.648438 L 33.652344 25.867188 L 32.875 25.867188 L 32.875 26.339844 C 32.914062 26.328125 32.949219 26.316406 32.988281 26.3125 C 33.027344 26.304688 33.0625 26.300781 33.101562 26.300781 C 33.3125 26.300781 33.484375 26.359375 33.605469 26.476562 C 33.730469 26.59375 33.792969 26.753906 33.792969 26.957031 C 33.792969 27.164062 33.730469 27.324219 33.601562 27.4375 C 33.472656 27.554688 33.292969 27.609375 33.0625 27.609375 C 32.980469 27.609375 32.898438 27.605469 32.816406 27.589844 C 32.730469 27.574219 32.644531 27.554688 32.558594 27.527344 L 32.558594 27.265625 C 32.636719 27.308594 32.714844 27.339844 32.796875 27.359375 C 32.878906 27.382812 32.964844 27.390625 33.058594 27.390625 C 33.203125 27.390625 33.320312 27.351562 33.40625 27.273438 C 33.492188 27.195312 33.535156 27.089844 33.535156 26.957031 C 33.535156 26.820312 33.492188 26.714844 33.40625 26.636719 C 33.320312 26.558594 33.203125 26.519531 33.058594 26.519531 C 32.988281 26.519531 32.917969 26.527344 32.851562 26.542969 C 32.777344 26.558594 32.707031 26.585938 32.640625 26.617188 Z M 32.640625 25.648438 "/>
</g>
</svg>
